HIERARCHY
ROOT Hips
{
    OFFSET 0.000000 0.000000 0.000000
    CHANNELS 6 Xposition Yposition Zposition Zrotation Xrotation Yrotation
    JOINT Spine
    {
        OFFSET -0.000000 7.384703 0.000000
        CHANNELS 3 Zrotation Xrotation Yrotation
        JOINT Spine1
        {
            OFFSET -0.000000 22.520039 0.000000
            CHANNELS 3 Zrotation Xrotation Yrotation
            JOINT Neck
            {
                OFFSET -0.000000 22.427553 2.038868
                CHANNELS 3 Zrotation Xrotation Yrotation
                JOINT Head
                {
                    OFFSET -0.000000 12.608030 -1.801147
                    CHANNELS 3 Zrotation Xrotation Yrotation
                    End Site
                    {
                        OFFSET -0.000000 22.514339 0.000000
                    }
                }
            }
            JOINT LeftShoulder
            {
                OFFSET 3.702039 19.556332 -0.329131
                CHANNELS 3 Zrotation Xrotation Yrotation
                JOINT LeftArm
                {
                    OFFSET 13.708566 0.000000 0.000000
                    CHANNELS 3 Zrotation Xrotation Yrotation
                    JOINT LeftForeArm
                    {
                        OFFSET 25.930668 0.000000 0.000000
                        CHANNELS 3 Zrotation Xrotation Yrotation
                        JOINT LeftHand
                        {
                            OFFSET 23.509682 0.000000 0.000000
                            CHANNELS 3 Zrotation Xrotation Yrotation
                            End Site
                            {
                                OFFSET 13.508604 0.000000 0.000000
                            }
                        }
                    }
                }
            }
            JOINT RightShoulder
            {
                OFFSET -3.486946 19.556332 -0.329131
                CHANNELS 3 Zrotation Xrotation Yrotation
                JOINT RightArm
                {
                    OFFSET -13.708566 0.000000 0.000000
                    CHANNELS 3 Zrotation Xrotation Yrotation
                    JOINT RightForeArm
                    {
                        OFFSET -25.930668 0.000000 0.000000
                        CHANNELS 3 Zrotation Xrotation Yrotation
                        JOINT RightHand
                        {
                            OFFSET -23.509682 0.000000 0.000000
                            CHANNELS 3 Zrotation Xrotation Yrotation
                            End Site
                            {
                                OFFSET -13.508604 0.000000 0.000000
                            }
                        }
                    }
                }
            }
        }
    }
    JOINT LeftUpLeg
    {
        OFFSET 9.005735 0.000000 0.000000
        CHANNELS 3 Zrotation Xrotation Yrotation
        JOINT LeftLeg
        {
            OFFSET -0.000000 -37.338741 0.000000
            CHANNELS 3 Zrotation Xrotation Yrotation
            JOINT LeftFoot
            {
                OFFSET -0.000000 -36.154961 0.000000
                CHANNELS 3 Zrotation Xrotation Yrotation
                JOINT LeftToeBase
                {
                    OFFSET -0.000000 -5.853728 13.508604
                    CHANNELS 3 Zrotation Xrotation Yrotation
                    End Site
                    {
                        OFFSET -0.000000 0.000000 3.602294
                    }
                }
            }
        }
    }
    JOINT RightUpLeg
    {
        OFFSET -9.005735 0.000000 0.000000
        CHANNELS 3 Zrotation Xrotation Yrotation
        JOINT RightLeg
        {
            OFFSET -0.000000 -37.338741 0.000000
            CHANNELS 3 Zrotation Xrotation Yrotation
            JOINT RightFoot
            {
                OFFSET -0.000000 -36.154961 0.000000
                CHANNELS 3 Zrotation Xrotation Yrotation
                JOINT RightToeBase
                {
                    OFFSET -0.000000 -5.853728 13.508604
                    CHANNELS 3 Zrotation Xrotation Yrotation
                    End Site
                    {
                        OFFSET -0.000000 0.000000 3.602294
                    }
                }
            }
        }
    }
}
MOTION
Frames:    4
Frame Time:    0.004000
20.473438    76.019379    -151.161407    -0.119788    4.268060    4.098057    -1.909957    -6.914316    -0.453148    -0.893645    -2.221666    -0.355176    10.388504    22.887686    3.234921    -7.979870    -1.884346    2.764084    20.347172    -0.986303    -3.028099    -29.848063    -1.691949    3.396107    3.114296    0.946609    1.385283    -3.573000    0.899112    0.315084    -13.811561    0.112613    -4.208301    20.272123    2.236214    2.892838    -2.397949    -2.124306    -0.599743    -2.774487    -2.144365    0.310611    -2.189671    -8.852855    -1.925624    -2.258795    15.819062    7.057915    1.306650    -12.540504    -1.023723    0.000000    0.000000    0.000000    -0.801214    -5.223019    3.536247    8.974223    12.830467    -1.491240    -7.339943    -13.001327    -21.991758    0.000000    0.000000    0.000000    
20.455297    76.014107    -151.138062    -0.124700    4.274646    4.096718    -1.909932    -6.921291    -0.446830    -0.906025    -2.219540    -0.349102    10.394993    22.891731    3.219547    -7.959507    -1.884812    2.752118    20.363874    -0.975183    -3.022543    -29.850645    -1.697879    3.371802    3.103177    0.946439    1.383939    -3.572639    0.899766    0.295435    -13.801558    0.112008    -4.209387    20.265518    2.218836    2.898589    -2.375153    -2.119026    -0.595763    -2.874645    -2.139718    0.331409    -2.168966    -8.852509    -1.929420    -2.265129    15.838680    7.051709    1.242110    -12.606375    -0.932713    0.000000    0.000000    0.000000    -0.783902    -5.208144    3.502353    8.966762    12.825279    -1.432960    -7.346837    -13.015536    -22.001865    0.000000    0.000000    0.000000    
20.447102    76.013275    -151.126465    -0.124661    4.279618    4.095849    -1.914386    -6.931715    -0.441762    -0.903234    -2.208987    -0.343297    10.315576    22.871031    3.265188    -7.843413    -1.894804    2.810270    20.363813    -0.994074    -3.025980    -29.852421    -1.691674    3.374026    3.086799    0.934683    1.371112    -3.511736    0.888683    0.296964    -13.809267    0.113661    -4.218668    20.281721    2.245515    2.910511    -2.402757    -2.131938    -0.604367    -2.843882    -2.153204    0.347236    -2.165445    -8.848169    -1.922743    -2.256014    15.841966    7.032901    1.235738    -12.619329    -0.910444    0.000000    0.000000    0.000000    -0.777889    -5.198627    3.499670    8.966671    12.811591    -1.443455    -7.354301    -13.016672    -21.992331    0.000000    0.000000    0.000000    
20.439451    76.012337    -151.113525    -0.125001    4.276395    4.091706    -1.918722    -6.931353    -0.440060    -0.897311    -2.206626    -0.341199    10.370637    22.891407    3.215970    -7.922318    -1.880496    2.752975    20.355795    -0.990886    -3.022166    -29.848709    -1.688510    3.374665    3.085272    0.925753    1.359472    -3.497922    0.880281    0.291897    -13.814697    0.104376    -4.209378    20.284992    2.258489    2.907270    -2.408495    -2.137630    -0.601164    -2.830562    -2.158735    0.342814    -2.157221    -8.837686    -1.916745    -2.260151    15.843985    7.042049    1.236967    -12.633181    -0.924511    0.000000    0.000000    0.000000    -0.767010    -5.184200    3.481113    8.955345    12.809488    -1.434088    -7.353971    -13.023685    -21.978128    0.000000    0.000000    0.000000    
